<?xml version="1.0" encoding="UTF-8"?>
<svg xmlns="http://www.w3.org/2000/svg" xmlns:xlink="http://www.w3.org/1999/xlink" width="512px" height="512px" viewBox="0 0 512 512" version="1.1">
<g id="surface1">
<path style=" stroke:none;fill-rule:nonzero;fill:rgb(36.862746%,9.019608%,92.156863%);fill-opacity:1;" d="M 0 0 C 168.960938 0 337.921875 0 512 0 C 512 168.960938 512 337.921875 512 512 C 343.039062 512 174.078125 512 0 512 C 0 343.039062 0 174.078125 0 0 Z M 0 0 "/>
<path style=" stroke:none;fill-rule:nonzero;fill:rgb(99.607843%,99.607843%,99.607843%);fill-opacity:1;" d="M 156.5 96 C 156.664062 96 156.828125 96 157 96 C 157.277344 98.796875 157.554688 101.597656 157.828125 104.394531 C 157.917969 105.34375 158.011719 106.289062 158.109375 107.234375 C 158.660156 112.761719 159.09375 118.265625 159.324219 123.8125 C 159.484375 127.5 159.8125 131.144531 160.21875 134.8125 C 160.726562 139.613281 161.152344 144.402344 161.46875 149.21875 C 162.199219 159.765625 163.125 170.597656 166.386719 180.699219 C 167.503906 184.363281 167.726562 187.746094 167.6875 191.5625 C 167.691406 192.121094 167.699219 192.675781 167.703125 193.25 C 167.695312 196.472656 167.613281 199.628906 166 202.5 C 164.828125 203.363281 164.828125 203.363281 163.53125 203.8125 C 161.515625 204.679688 160.371094 205.332031 159.398438 207.414062 C 158.691406 209.332031 158.03125 211.261719 157.414062 213.210938 C 157 214.5 157 214.5 156.5 215.5 C 157.007812 215.390625 157.007812 215.390625 157.527344 215.28125 C 164.027344 213.984375 164.027344 213.984375 167 214.5 C 168.449219 215.554688 168.964844 216.816406 169.5 218.5 C 169.902344 221.449219 169.59375 223.992188 168.523438 226.757812 C 167.363281 230.113281 167.101562 233.289062 166.9375 236.8125 C 166.863281 238.050781 166.789062 239.289062 166.710938 240.527344 C 166.660156 241.421875 166.660156 241.421875 166.605469 242.332031 C 165.269531 263.230469 165.269531 263.230469 161 267.5 C 159.917969 267.597656 159.917969 267.597656 158.6875 267.5625 C 158.277344 267.554688 157.871094 267.542969 157.449219 267.535156 C 156.980469 267.519531 156.980469 267.519531 156.5 267.5 C 156.5 267.996094 156.5 268.488281 156.5 269 C 157.820312 269.328125 159.140625 269.660156 160.5 270 C 160.335938 272.144531 160.171875 274.289062 160 276.5 C 161.546875 276.164062 161.546875 276.164062 162.085938 275.007812 C 166.28125 264.804688 168.890625 253.757812 169.21875 242.71875 C 169.433594 236.0625 171.789062 229.359375 176.078125 224.203125 C 177.859375 222.695312 179.574219 222.058594 181.75 221.28125 C 193.351562 216.882812 204.546875 211.125 214.910156 204.320312 C 227.261719 196.242188 240.136719 188.886719 253.035156 181.71875 C 253.78125 181.304688 253.78125 181.304688 254.539062 180.882812 C 254.980469 180.640625 255.417969 180.394531 255.871094 180.144531 C 256.769531 179.632812 257.640625 179.074219 258.5 178.5 C 261.792969 178.160156 263.640625 178.84375 266.40625 180.5625 C 267.105469 180.976562 267.808594 181.390625 268.507812 181.804688 C 268.847656 182.007812 269.1875 182.210938 269.535156 182.421875 C 270.84375 183.207031 272.167969 183.953125 273.5 184.6875 C 274.085938 185.019531 274.085938 185.019531 274.6875 185.355469 C 275.773438 185.890625 276.804688 186.292969 277.941406 186.6875 C 280.003906 187.445312 281.65625 188.511719 283.4375 189.78125 C 287.222656 192.382812 291.152344 194.617188 295.191406 196.792969 C 296.597656 197.554688 298 198.320312 299.398438 199.089844 C 318.089844 209.910156 318.089844 209.910156 338.1875 217.3125 C 340.125 217.796875 341.34375 218.347656 342.507812 220.089844 C 342.671875 220.390625 342.832031 220.691406 343 221 C 343.175781 221.320312 343.355469 221.640625 343.539062 221.972656 C 345.515625 226.191406 345.867188 230.933594 346.5 235.5 C 347.78125 244.523438 349.328125 253.359375 351.820312 262.132812 C 353.050781 266.515625 354.007812 270.945312 354.910156 275.40625 C 355.964844 280.730469 355.964844 280.730469 359.125 284.960938 C 359.699219 285.273438 359.699219 285.273438 360.28125 285.59375 C 362.1875 286.65625 363.003906 287.546875 364 289.5 C 364.339844 291.054688 364.339844 291.054688 364.546875 292.800781 C 364.628906 293.445312 364.710938 294.085938 364.792969 294.75 C 364.871094 295.4375 364.953125 296.125 365.03125 296.8125 C 365.117188 297.511719 365.203125 298.214844 365.289062 298.914062 C 365.8125 303.195312 366.296875 307.480469 366.703125 311.777344 C 366.847656 313.269531 367.023438 314.570312 367.5 316 C 367.839844 319.757812 367.804688 322.914062 365.5 326 C 364.28125 327.363281 363.027344 328.695312 361.773438 330.03125 C 358.007812 334.382812 355.761719 339.066406 355.832031 344.835938 C 356.015625 346.636719 356.449219 348.183594 357 349.90625 C 359.113281 356.730469 357.777344 363 356.09375 369.71875 C 355.734375 371.195312 355.378906 372.675781 355.023438 374.15625 C 354.933594 374.515625 354.847656 374.875 354.753906 375.246094 C 353.996094 378.402344 353.40625 381.574219 352.855469 384.773438 C 352.285156 387.535156 351.535156 390.464844 349.5 392.5 C 348.21875 392.59375 348.21875 392.59375 347 392.5 C 346.5 392 346.5 392 346.335938 390.390625 C 346.378906 387.195312 347.597656 384.269531 348.625 381.28125 C 351.609375 372.296875 354.039062 363.441406 354.125 353.90625 C 354.132812 353.359375 354.132812 353.359375 354.140625 352.796875 C 354.128906 350.925781 354.0625 350.09375 353 348.5 C 352.671875 348.5 352.339844 348.5 352 348.5 C 351.980469 349.113281 351.960938 349.722656 351.941406 350.351562 C 351.636719 358.792969 350.851562 367.484375 348 375.5 C 347.671875 375.664062 347.339844 375.828125 347 376 C 346.636719 373.691406 346.425781 371.453125 346.375 369.121094 C 346.359375 368.480469 346.34375 367.84375 346.328125 367.1875 C 346.316406 366.691406 346.316406 366.691406 346.304688 366.183594 C 345.972656 352.484375 344.421875 341.28125 338 329 C 337.835938 328.679688 337.675781 328.359375 337.507812 328.027344 C 335.269531 323.691406 332.308594 321.714844 328.226562 319.359375 C 325.71875 317.878906 323.445312 316.140625 321.15625 314.34375 C 320.777344 314.050781 320.402344 313.757812 320.015625 313.453125 C 318.996094 312.652344 317.992188 311.832031 317 311 C 316.726562 310.769531 316.453125 310.542969 316.167969 310.304688 C 315.460938 309.664062 315.460938 309.664062 314.5 308.5 C 314.582031 307.492188 314.582031 307.492188 315 306.5 C 315.757812 305.914062 315.757812 305.914062 316.726562 305.445312 C 317.078125 305.277344 317.429688 305.105469 317.789062 304.925781 C 318.160156 304.753906 318.527344 304.582031 318.90625 304.40625 C 319.269531 304.230469 319.632812 304.050781 320.003906 303.867188 C 321.660156 303.070312 323.199219 302.402344 325 302 C 325 301.671875 325 301.339844 325 301 C 321.160156 301.574219 317.46875 302.324219 313.75 303.4375 C 313.242188 303.585938 312.734375 303.738281 312.214844 303.894531 C 307.6875 305.253906 303.199219 306.726562 298.71875 308.21875 C 298.167969 308.402344 298.167969 308.402344 297.605469 308.589844 C 293.183594 310.0625 288.777344 311.574219 284.382812 313.121094 C 282.25 313.867188 280.117188 314.613281 277.984375 315.355469 C 276.9375 315.71875 275.894531 316.089844 274.855469 316.460938 C 273.386719 316.984375 271.917969 317.5 270.445312 318.007812 C 270.011719 318.167969 269.578125 318.328125 269.132812 318.488281 C 265.117188 319.863281 261.90625 319.386719 257.90625 318.125 C 254.835938 317.207031 251.753906 316.472656 248.625 315.78125 C 242.765625 314.476562 237.007812 312.917969 231.265625 311.171875 C 220.714844 307.980469 210.019531 305.34375 199 304.5 C 199 304.828125 199 305.160156 199 305.5 C 199.421875 305.5625 199.839844 305.628906 200.273438 305.691406 C 204.757812 306.488281 209.191406 307.730469 213.375 309.535156 C 215.75 310.515625 218.003906 311.125 220.554688 311.445312 C 223.878906 311.933594 226.964844 312.804688 230.15625 313.84375 C 231.289062 314.203125 232.425781 314.5625 233.5625 314.917969 C 234.128906 315.097656 234.699219 315.277344 235.285156 315.464844 C 237.996094 316.3125 240.714844 317.113281 243.4375 317.90625 C 244.144531 318.113281 244.144531 318.113281 244.867188 318.328125 C 252.507812 320.550781 259.875 322.035156 267.835938 322.445312 C 277.382812 322.945312 277.382812 322.945312 281.8125 323.46875 C 282.375 323.535156 282.9375 323.601562 283.519531 323.671875 C 286.601562 324.355469 288.691406 325.964844 291 328 C 291.328125 327.175781 291.660156 326.351562 292 325.5 C 292.496094 325.5 292.988281 325.5 293.5 325.5 C 294.15625 327.464844 294.082031 329.347656 294.085938 331.398438 C 294.089844 331.847656 294.09375 332.296875 294.097656 332.761719 C 294.105469 333.738281 294.109375 334.714844 294.113281 335.695312 C 294.125 337.246094 294.132812 338.796875 294.148438 340.351562 C 294.183594 344.761719 294.210938 349.175781 294.238281 353.585938 C 294.253906 356.285156 294.273438 358.984375 294.296875 361.683594 C 294.304688 362.710938 294.3125 363.734375 294.316406 364.761719 C 294.28125 371.652344 294.28125 371.652344 295.28125 378.445312 C 295.632812 380.144531 295.566406 381.773438 295.5 383.5 C 295.003906 383.664062 294.511719 383.828125 294 384 C 294 386.144531 294 388.289062 294 390.5 C 294.484375 389.851562 294.96875 389.199219 295.46875 388.53125 C 296.9375 386.5625 296.9375 386.5625 297.5 386 C 298.6875 385.84375 298.6875 385.84375 300 386 C 301.738281 387.675781 301.761719 389.285156 301.8125 391.625 C 301.832031 396.917969 299.546875 401.023438 297.15625 405.625 C 296.453125 407.097656 296.191406 408.386719 296 410 C 296.328125 410 296.660156 410 297 410 C 297.019531 410.523438 297.039062 411.046875 297.054688 411.589844 C 297.089844 412.277344 297.121094 412.96875 297.15625 413.65625 C 297.167969 414 297.179688 414.347656 297.191406 414.703125 C 297.257812 416.644531 297.257812 416.644531 298.144531 418.308594 C 302.027344 421.441406 308.039062 420.710938 312.722656 420.667969 C 314.082031 420.65625 315.441406 420.65625 316.796875 420.660156 C 329.113281 420.953125 329.113281 420.953125 339.773438 415.910156 C 342.421875 412.59375 343.097656 407.933594 344.039062 403.886719 C 344.777344 400.855469 345.757812 398.742188 348 396.5 C 348.472656 396.398438 348.949219 396.292969 349.4375 396.1875 C 351.269531 395.382812 351.757812 394.574219 352.542969 392.765625 C 353.253906 390.796875 353.820312 388.800781 354.367188 386.777344 C 354.859375 384.964844 355.40625 383.171875 355.960938 381.378906 C 358.488281 373.210938 360.496094 365.296875 360.796875 356.722656 C 361.046875 355.226562 361.660156 354.25 362.5 353 C 362.828125 353.164062 363.160156 353.328125 363.5 353.5 C 363.75 354.695312 363.921875 355.835938 364.054688 357.046875 C 364.097656 357.421875 364.140625 357.796875 364.183594 358.183594 C 364.703125 363.371094 364.652344 368.574219 364.625 373.78125 C 364.625 374.3125 364.621094 374.839844 364.621094 375.386719 C 364.574219 393.3125 364.574219 393.3125 362.976562 400.355469 C 362.300781 403.597656 362.335938 406.824219 362.34375 410.125 C 362.335938 410.734375 362.328125 411.347656 362.320312 411.972656 C 362.3125 422.140625 365.296875 431.125 372.242188 438.589844 C 373.515625 440.121094 373.96875 441.230469 374.1875 443.21875 C 373.960938 445.355469 373.464844 445.960938 372 447.5 C 370.578125 448.3125 370.578125 448.3125 369.03125 449 C 364.933594 450.957031 362.765625 453.4375 361.042969 457.609375 C 359.703125 461.476562 359.015625 466.191406 360.6875 470.0625 C 361.683594 471.75 362.980469 473.105469 364.3125 474.53125 C 369.28125 479.855469 372.597656 486.019531 375.976562 492.429688 C 378.007812 496.238281 380.269531 499.785156 382.84375 503.25 C 384.984375 506.199219 385.65625 508.304688 387 512 C 308.625 512 230.25 512 149.5 512 C 150.28125 508.492188 151.199219 505.257812 152.34375 501.875 C 153.039062 499.570312 153.4375 497.222656 153.863281 494.855469 C 154.625 490.691406 155.609375 486.582031 156.613281 482.46875 C 156.9375 481.121094 157.257812 479.773438 157.578125 478.421875 C 158.859375 473.082031 160.332031 468.164062 162.90625 463.28125 C 163.542969 461.902344 163.632812 461 163.5 459.5 C 163.003906 459.398438 162.511719 459.292969 162 459.1875 C 157.933594 458.007812 155.023438 454.75 152.5 451.5 C 152.335938 451.171875 152.171875 450.839844 152 450.5 C 152.820312 449.277344 153.640625 448.058594 154.46875 446.84375 C 154.839844 446.296875 154.839844 446.296875 155.21875 445.738281 C 156.714844 443.5625 158.273438 441.527344 160 439.53125 C 166 432.351562 165.183594 420.824219 164.5 412 C 163.902344 408.09375 162.871094 404.296875 161.863281 400.480469 C 161.300781 398.195312 160.929688 395.890625 160.59375 393.5625 C 160.539062 393.1875 160.484375 392.808594 160.425781 392.421875 C 159.644531 386.800781 159.417969 381.21875 159.433594 375.554688 C 159.4375 374.421875 159.433594 373.292969 159.429688 372.160156 C 159.433594 371.4375 159.433594 370.71875 159.433594 369.996094 C 159.433594 369.347656 159.433594 368.699219 159.433594 368.03125 C 159.5 366.5 159.5 366.5 160 365.5 C 160.882812 365.753906 160.882812 365.753906 162 366.5 C 162.710938 367.824219 163.289062 369.078125 163.84375 370.46875 C 164.011719 370.882812 164.183594 371.296875 164.355469 371.726562 C 167.621094 379.886719 170.320312 388.316406 172.53125 396.820312 C 172.636719 397.21875 172.746094 397.621094 172.855469 398.03125 C 172.945312 398.378906 173.035156 398.722656 173.125 399.078125 C 173.578125 400.191406 174.066406 400.753906 175 401.5 C 175.566406 401.644531 176.132812 401.789062 176.71875 401.9375 C 178.847656 402.609375 179.367188 403.101562 180.5 405 C 181.292969 406.9375 181.847656 408.9375 182.398438 410.953125 C 184.382812 417.960938 187.453125 424.191406 192.5 429.5 C 192.894531 429.914062 193.285156 430.328125 193.691406 430.753906 C 205.691406 442.460938 223.394531 447.679688 239.5 450.5 C 240.140625 450.632812 240.140625 450.632812 240.789062 450.765625 C 243.1875 451.09375 245.558594 451.101562 247.976562 451.121094 C 248.511719 451.125 249.046875 451.128906 249.601562 451.132812 C 251.347656 451.144531 253.097656 451.152344 254.84375 451.15625 C 255.738281 451.160156 255.738281 451.160156 256.648438 451.160156 C 271.035156 451.164062 285.503906 450.078125 299.5 446.5 C 299.5 446.171875 299.5 445.839844 299.5 445.5 C 299.007812 445.507812 298.511719 445.515625 298.003906 445.523438 C 296.152344 445.550781 294.304688 445.566406 292.457031 445.582031 C 291.660156 445.589844 290.863281 445.601562 290.066406 445.613281 C 288.914062 445.632812 287.761719 445.640625 286.609375 445.648438 C 286.257812 445.652344 285.90625 445.660156 285.546875 445.671875 C 283.269531 445.671875 281.535156 445.234375 279.433594 444.367188 C 278.144531 443.859375 276.851562 443.605469 275.492188 443.359375 C 274.941406 443.257812 274.394531 443.160156 273.832031 443.054688 C 273.257812 442.953125 272.683594 442.855469 272.09375 442.75 C 271.496094 442.640625 270.898438 442.535156 270.285156 442.425781 C 261.902344 440.882812 261.902344 440.882812 253.457031 439.792969 C 244.042969 438.851562 236.132812 435.019531 227.730469 430.855469 C 224.976562 429.496094 222.207031 428.164062 219.441406 426.828125 C 218.503906 426.375 217.566406 425.921875 216.628906 425.46875 C 213.742188 424.070312 210.847656 422.691406 207.921875 421.371094 C 193.027344 414.585938 193.027344 414.585938 189.5 409 C 188.960938 407.332031 188.609375 405.742188 188.367188 404.007812 C 187.9375 402.25 187.207031 401.324219 186 400 C 186.3125 399.09375 186.3125 399.09375 187 398 C 187.484375 397.792969 187.96875 397.585938 188.46875 397.375 C 190.242188 396.363281 190.558594 395.554688 191.207031 393.667969 C 191.71875 391.632812 191.722656 389.636719 191.71875 387.546875 C 191.71875 387.085938 191.722656 386.621094 191.726562 386.148438 C 191.726562 385.175781 191.726562 384.203125 191.722656 383.230469 C 191.71875 381.753906 191.734375 380.277344 191.75 378.796875 C 191.75 377.851562 191.75 376.902344 191.75 375.953125 C 191.753906 375.515625 191.757812 375.078125 191.765625 374.628906 C 191.734375 371.972656 191.265625 370.214844 189.96875 367.902344 C 188.34375 364.777344 188.890625 360.703125 188.878906 357.265625 C 188.875 356.199219 188.859375 355.136719 188.84375 354.070312 C 188.808594 349.613281 188.964844 345.066406 191 341 C 191.074219 339.875 191.109375 338.75 191.125 337.625 C 191.136719 337.019531 191.152344 336.414062 191.164062 335.789062 C 190.988281 333.863281 190.46875 332.660156 189.5 331 C 187.628906 331.738281 186.855469 332.71875 185.75 334.375 C 185.445312 334.824219 185.144531 335.269531 184.832031 335.734375 C 184.195312 336.703125 183.566406 337.679688 182.9375 338.65625 C 181.921875 340.109375 180.785156 341.285156 179.5 342.5 C 178.511719 342.171875 177.519531 341.839844 176.5 341.5 C 176.59375 342.226562 176.59375 342.226562 176.6875 342.96875 C 176.699219 345.644531 175.035156 347.441406 173.5 349.5 C 171.472656 352.414062 170.898438 354.539062 170.875 358.09375 C 170.863281 358.449219 170.855469 358.804688 170.84375 359.171875 C 170.796875 366.042969 172.84375 372.566406 175.125 378.96875 C 175.371094 379.671875 175.613281 380.375 175.859375 381.074219 C 177.28125 385.136719 178.765625 389.167969 180.578125 393.070312 C 181.402344 394.910156 181.664062 396.066406 181 398 C 180.5 398.5 180.5 398.5 179.375 398.71875 C 177.640625 398.441406 177.148438 397.683594 176.089844 396.34375 C 175.230469 395.113281 174.695312 393.867188 174.15625 392.46875 C 173.980469 392.007812 173.980469 392.007812 173.796875 391.539062 C 172.441406 387.957031 171.195312 384.335938 169.9375 380.71875 C 169.726562 380.117188 169.519531 379.511719 169.300781 378.890625 C 166.121094 369.625 163.339844 361.386719 166.71875 351.84375 C 168.113281 347.777344 169.070312 344.242188 169.125 339.90625 C 169.136719 339.300781 169.152344 338.695312 169.164062 338.070312 C 169.148438 336.335938 169.148438 336.335938 167.5 335 C 167.664062 337.144531 167.828125 339.289062 168 341.5 C 165.835938 340.632812 165.199219 340.378906 163.75 338.8125 C 162.765625 337.773438 161.867188 336.898438 160.71875 336.03125 C 157.269531 333.109375 154.59375 328.796875 154.179688 324.238281 C 154.15625 323.429688 154.148438 322.621094 154.15625 321.8125 C 154.15625 321.148438 154.15625 321.148438 154.160156 320.472656 C 154.3125 315.355469 155.722656 310.558594 157.136719 305.671875 C 158.492188 300.890625 159.171875 296.246094 159.125 291.28125 C 159.128906 290.851562 159.132812 290.421875 159.136719 289.980469 C 159.128906 287.734375 158.972656 286.066406 158 284 C 158 283.503906 158 283.011719 158 282.5 C 158.824219 282.5 159.648438 282.5 160.5 282.5 C 160.5 281.511719 160.5 280.519531 160.5 279.5 C 160.046875 279.417969 159.59375 279.335938 159.125 279.25 C 157.1875 278.355469 156.734375 277.710938 155.9375 275.789062 C 154.230469 270.769531 154.339844 265.332031 154.371094 260.085938 C 154.375 258.890625 154.371094 257.691406 154.363281 256.492188 C 154.363281 255.726562 154.363281 254.960938 154.367188 254.195312 C 154.363281 253.839844 154.363281 253.484375 154.359375 253.113281 C 154.386719 250.613281 154.386719 250.613281 155.5 249.5 C 155.996094 251.234375 155.996094 251.234375 156.5 253 C 156.828125 253 157.160156 253 157.5 253 C 158.632812 249.398438 158.617188 246.003906 158.5625 242.25 C 158.558594 241.648438 158.554688 241.046875 158.546875 240.425781 C 158.539062 238.949219 158.519531 237.476562 158.5 236 C 158.304688 236.53125 158.113281 237.058594 157.914062 237.605469 C 157.652344 238.300781 157.386719 238.992188 157.125 239.6875 C 157 240.035156 156.871094 240.386719 156.742188 240.746094 C 155.746094 243.335938 155.746094 243.335938 154.398438 244.238281 C 154.101562 244.324219 153.804688 244.410156 153.5 244.5 C 153.066406 241.886719 152.921875 239.371094 152.917969 236.722656 C 152.917969 236.308594 152.914062 235.894531 152.910156 235.46875 C 152.90625 234.109375 152.902344 232.746094 152.898438 231.382812 C 152.894531 230.679688 152.894531 230.679688 152.894531 229.960938 C 152.886719 227.46875 152.882812 224.976562 152.878906 222.488281 C 152.878906 219.941406 152.863281 217.394531 152.851562 214.851562 C 152.839844 212.871094 152.839844 210.890625 152.839844 208.910156 C 152.835938 207.972656 152.832031 207.035156 152.824219 206.097656 C 152.769531 197.441406 153.136719 188.894531 157 181 C 158.421875 177.875 159.398438 175.460938 159 172 C 158.65625 171.183594 158.308594 170.363281 157.925781 169.5625 C 155.878906 164.460938 155.539062 158.492188 154.96875 153.0625 C 154.925781 152.667969 154.882812 152.273438 154.839844 151.867188 C 153.535156 139.457031 152.945312 126.984375 152.851562 114.507812 C 152.847656 113.765625 152.839844 113.027344 152.828125 112.285156 C 152.761719 106.429688 153.207031 100.996094 156.5 96 Z M 156.5 96 "/>
<path style=" stroke:none;fill-rule:nonzero;fill:rgb(99.607843%,99.215686%,99.607843%);fill-opacity:1;" d="M 236 195 C 242.601562 195.359375 249.003906 197.933594 255.171875 200.164062 C 257.617188 201.039062 260.078125 201.839844 262.5625 202.605469 C 268.078125 204.308594 273.535156 206.195312 279 208.0625 C 280.113281 208.441406 281.226562 208.824219 282.34375 209.203125 C 284.007812 209.773438 285.671875 210.339844 287.339844 210.910156 C 290.519531 211.996094 293.703125 213.074219 296.890625 214.140625 C 315.722656 220.445312 315.722656 220.445312 317 223 C 316.722656 224.191406 316.40625 225.332031 316.046875 226.5 C 315.933594 226.871094 315.820312 227.242188 315.703125 227.625 C 313.980469 233.277344 312.125 238.886719 310.28125 244.5 C 310.082031 245.101562 309.886719 245.707031 309.683594 246.328125 C 306.96875 254.609375 304.199219 262.875 301.351562 271.113281 C 299.03125 277.847656 296.847656 284.613281 294.773438 291.425781 C 291.996094 300.503906 291.996094 300.503906 290.5 302 C 283.4375 302.609375 275.941406 299.25 269.28125 297.125 C 268.429688 296.855469 267.578125 296.585938 266.726562 296.3125 C 261.910156 294.78125 257.101562 293.226562 252.3125 291.609375 C 249.027344 290.5 245.730469 289.421875 242.429688 288.359375 C 225.433594 282.867188 225.433594 282.867188 218.5 280.375 C 217.75 280.105469 217.75 280.105469 216.984375 279.832031 C 215.15625 279.164062 213.628906 278.585938 212 277.5 C 211.671875 274.546875 212.414062 271.902344 213.1875 269.0625 C 213.316406 268.574219 213.445312 268.089844 213.582031 267.585938 C 214.816406 263.03125 216.164062 258.515625 217.53125 254 C 217.636719 253.65625 217.738281 253.316406 217.84375 252.960938 C 218.957031 249.296875 220.105469 245.648438 221.328125 242.023438 C 222.203125 239.414062 223.015625 236.8125 223.71875 234.15625 C 224.566406 231.027344 225.464844 227.914062 226.40625 224.8125 C 227.671875 220.636719 228.890625 216.445312 230.09375 212.25 C 230.261719 211.671875 230.425781 211.09375 230.597656 210.496094 C 231.515625 207.289062 232.363281 204.082031 233.109375 200.832031 C 233.734375 198.703125 234.808594 196.863281 236 195 Z M 236 195 "/>
<path style=" stroke:none;fill-rule:nonzero;fill:rgb(38.431373%,11.372549%,92.156863%);fill-opacity:1;" d="M 236 195 C 242.601562 195.359375 249.003906 197.933594 255.171875 200.164062 C 257.617188 201.039062 260.078125 201.839844 262.5625 202.605469 C 268.078125 204.308594 273.535156 206.195312 279 208.0625 C 280.113281 208.441406 281.226562 208.824219 282.34375 209.203125 C 284.007812 209.773438 285.671875 210.339844 287.339844 210.910156 C 290.519531 211.996094 293.703125 213.074219 296.890625 214.140625 C 315.722656 220.445312 315.722656 220.445312 317 223 C 316.722656 224.191406 316.40625 225.332031 316.046875 226.5 C 315.933594 226.871094 315.820312 227.242188 315.703125 227.625 C 313.980469 233.277344 312.125 238.886719 310.28125 244.5 C 310.082031 245.101562 309.886719 245.707031 309.683594 246.328125 C 306.96875 254.609375 304.199219 262.875 301.351562 271.113281 C 299.03125 277.847656 296.847656 284.613281 294.773438 291.425781 C 291.996094 300.503906 291.996094 300.503906 290.5 302 C 283.4375 302.609375 275.941406 299.25 269.28125 297.125 C 268.429688 296.855469 267.578125 296.585938 266.726562 296.3125 C 261.910156 294.78125 257.101562 293.226562 252.3125 291.609375 C 249.027344 290.5 245.730469 289.421875 242.429688 288.359375 C 225.433594 282.867188 225.433594 282.867188 218.5 280.375 C 217.75 280.105469 217.75 280.105469 216.984375 279.832031 C 215.15625 279.164062 213.628906 278.585938 212 277.5 C 211.671875 274.546875 212.414062 271.902344 213.1875 269.0625 C 213.316406 268.574219 213.445312 268.089844 213.582031 267.585938 C 214.816406 263.03125 216.164062 258.515625 217.53125 254 C 217.636719 253.65625 217.738281 253.316406 217.84375 252.960938 C 218.957031 249.296875 220.105469 245.648438 221.328125 242.023438 C 222.203125 239.414062 223.015625 236.8125 223.71875 234.15625 C 224.566406 231.027344 225.464844 227.914062 226.40625 224.8125 C 227.671875 220.636719 228.890625 216.445312 230.09375 212.25 C 230.261719 211.671875 230.425781 211.09375 230.597656 210.496094 C 231.515625 207.289062 232.363281 204.082031 233.109375 200.832031 C 233.734375 198.703125 234.808594 196.863281 236 195 Z M 237.5 199.5 C 237.347656 200.265625 237.214844 201.039062 237.09375 201.8125 C 235.976562 208.195312 233.957031 214.367188 231.984375 220.527344 C 231.3125 222.628906 230.644531 224.734375 229.976562 226.835938 C 229.847656 227.246094 229.71875 227.65625 229.582031 228.082031 C 228.175781 232.515625 226.804688 236.960938 225.472656 241.417969 C 225.121094 242.597656 224.765625 243.78125 224.410156 244.960938 C 221.242188 255.445312 221.242188 255.445312 218.4375 266.03125 C 218.335938 266.429688 218.238281 266.824219 218.132812 267.234375 C 217.6875 269.148438 217.457031 270.914062 217.476562 272.882812 C 217.480469 273.28125 217.484375 273.679688 217.488281 274.089844 C 217.492188 274.390625 217.496094 274.691406 217.5 275 C 223.328125 277.332031 229.191406 279.46875 235.152344 281.429688 C 236.414062 281.847656 237.675781 282.265625 238.9375 282.683594 C 242.851562 283.984375 246.769531 285.25 250.714844 286.449219 C 253.023438 287.160156 255.328125 287.898438 257.632812 288.640625 C 258.09375 288.785156 258.554688 288.933594 259.03125 289.085938 C 260.945312 289.699219 262.863281 290.3125 264.777344 290.929688 C 269.652344 292.496094 274.527344 294.050781 279.445312 295.46875 C 279.800781 295.578125 280.152344 295.683594 280.515625 295.789062 C 282.910156 296.464844 285.011719 296.648438 287.5 296.5 C 288.550781 295.878906 288.550781 295.878906 289.1875 294.90625 C 289.417969 294.609375 289.648438 294.316406 289.886719 294.007812 C 291.3125 291.664062 291.808594 289.191406 292.34375 286.53125 C 293.378906 281.699219 294.835938 277.058594 296.386719 272.371094 C 297.117188 270.144531 297.835938 267.914062 298.554688 265.6875 C 301.777344 255.703125 305.070312 245.753906 308.5 235.839844 C 308.632812 235.460938 308.761719 235.078125 308.898438 234.6875 C 309.140625 233.984375 309.386719 233.277344 309.632812 232.574219 C 310.421875 230.285156 311.070312 228.304688 311.03125 225.875 C 311.015625 224.945312 311.015625 224.945312 311 224 C 307.707031 222.460938 304.363281 221.199219 300.921875 220.023438 C 300.386719 219.839844 299.851562 219.65625 299.296875 219.464844 C 297.542969 218.859375 295.789062 218.257812 294.03125 217.65625 C 292.800781 217.234375 291.574219 216.808594 290.34375 216.386719 C 284.269531 214.296875 278.1875 212.21875 272.101562 210.160156 C 271.554688 209.976562 271.007812 209.789062 270.445312 209.601562 C 267.246094 208.515625 267.246094 208.515625 264.046875 207.4375 C 257.402344 205.191406 250.78125 202.898438 244.246094 200.34375 C 243.773438 200.164062 243.304688 199.980469 242.820312 199.796875 C 242.425781 199.640625 242.03125 199.484375 241.625 199.324219 C 239.4375 198.691406 239.4375 198.691406 237.5 199.5 Z M 237.5 199.5 "/>
<path style=" stroke:none;fill-rule:nonzero;fill:rgb(98.039216%,97.254902%,99.607843%);fill-opacity:1;" d="M 438 46 C 438.015625 46.691406 438.015625 46.691406 438.03125 47.398438 C 437.820312 69.519531 437.820312 69.519531 442 91 C 443.648438 91 445.300781 91 447 91 C 445.742188 93.515625 444.574219 94.070312 442 95 C 440.496094 95.359375 439.042969 95.667969 437.5 95.5 C 435.25 93.792969 434.675781 90.898438 434.15625 88.25 C 433.984375 86.316406 433.988281 84.441406 434 82.5 C 424.042969 81.535156 424.042969 81.535156 414.613281 83.746094 C 412.664062 85.515625 411.511719 87.652344 410.453125 90.039062 C 409.222656 92.644531 406.703125 95.445312 404 96.5 C 400.714844 96.917969 400.714844 96.917969 399.09375 95.972656 C 398.003906 95.085938 397.132812 94.261719 396.5 93 C 396.324219 90.292969 396.316406 88.746094 398 86.5 C 398.496094 86.664062 398.988281 86.828125 399.5 87 C 399.5625 87.320312 399.625 87.640625 399.6875 87.96875 C 399.90625 89.113281 399.90625 89.113281 401.09375 89.625 C 402.78125 90.074219 403.757812 90.308594 405.5 90 C 416.863281 83.027344 425.21875 63.792969 430.414062 52.378906 C 432.078125 48.867188 433.722656 46 438 46 Z M 438 46 "/>
<path style=" stroke:none;fill-rule:nonzero;fill:rgb(97.647059%,96.470588%,99.607843%);fill-opacity:1;" d="M 365.835938 48.351562 C 366.238281 48.347656 366.640625 48.34375 367.054688 48.34375 C 367.898438 48.339844 368.746094 48.339844 369.589844 48.34375 C 370.863281 48.34375 372.140625 48.332031 373.414062 48.320312 C 379.882812 48.292969 385.652344 48.554688 390.6875 53.0625 C 391.925781 55.253906 391.9375 57.042969 391.5 59.5 C 389.335938 65.988281 384.433594 69.957031 378.5 73 C 377.671875 73.34375 376.839844 73.679688 376 74 C 376.25 74.496094 376.496094 74.992188 376.75 75.503906 C 376.914062 75.828125 377.078125 76.15625 377.246094 76.488281 C 377.605469 77.210938 377.964844 77.929688 378.328125 78.648438 C 379.222656 80.441406 380.117188 82.234375 380.992188 84.039062 C 381.148438 84.351562 381.300781 84.667969 381.460938 84.992188 C 381.882812 85.863281 382.308594 86.734375 382.726562 87.601562 C 383.410156 88.835938 383.875 89.671875 385 90.5 C 386.554688 90.921875 387.9375 90.859375 389.5 90.5 C 391.019531 89.507812 392.234375 88.292969 393.5 87 C 395.757812 85 395.757812 85 398 85 C 397.628906 87.515625 396.082031 89.042969 394.132812 90.566406 C 386.644531 95.511719 386.644531 95.511719 382.175781 95.25 C 379.910156 94.769531 378.480469 93.207031 377 91.5 C 375.78125 89.46875 374.824219 87.351562 373.875 85.1875 C 373.375 84.074219 372.871094 82.964844 372.367188 81.855469 C 372.042969 81.121094 372.042969 81.121094 371.714844 80.375 C 370.589844 78.210938 369.667969 76.769531 367.375 75.84375 C 366.921875 75.730469 366.46875 75.617188 366 75.5 C 366.738281 73.550781 367.65625 72.921875 369.5 72 C 370.800781 71.726562 372.0625 71.503906 373.375 71.3125 C 377.03125 70.6875 380.5 70.0625 382.804688 66.890625 C 384.214844 64.449219 385.070312 62.34375 385.0625 59.5 C 385.0625 59.066406 385.066406 58.632812 385.066406 58.1875 C 385.046875 56.925781 385.046875 56.925781 384.5 55.5 C 383.328125 54.941406 383.328125 54.941406 382 54.5 C 381.527344 54.253906 381.527344 54.253906 381.046875 54.003906 C 376.699219 51.910156 371.226562 52.207031 366.5 52 C 366.511719 52.570312 366.523438 53.140625 366.539062 53.726562 C 366.535156 55.984375 366.269531 58.148438 365.90625 60.375 C 365.839844 60.78125 365.773438 61.1875 365.707031 61.609375 C 364.273438 70.105469 362.058594 78.667969 358.605469 86.570312 C 357.984375 87.984375 357.984375 87.984375 357.519531 89.414062 C 356.773438 91.597656 356.25 93.09375 354.21875 94.3125 C 352.5 95 352.5 95 351 95 C 351.273438 91.730469 352.414062 88.96875 353.625 85.9375 C 357.738281 75.277344 360.011719 63.878906 361 52.5 C 359.96875 52.628906 358.9375 52.765625 357.90625 52.90625 C 357.332031 52.980469 356.757812 53.058594 356.164062 53.132812 C 354.011719 53.605469 352.535156 54.167969 351.3125 56.0625 C 351.136719 56.441406 350.960938 56.824219 350.78125 57.21875 C 349.691406 59.320312 348.675781 60.433594 346.5 61.5 C 345.839844 61.5 345.179688 61.5 344.5 61.5 C 344.917969 57.945312 347.125 55.59375 349.765625 53.367188 C 354.585938 49.980469 360.003906 48.34375 365.835938 48.351562 Z M 365.835938 48.351562 "/>
<path style=" stroke:none;fill-rule:nonzero;fill:rgb(37.64706%,10.196079%,92.156863%);fill-opacity:1;" d="M 283.5 229.5 C 284.21875 229.714844 284.9375 229.933594 285.65625 230.15625 C 286.054688 230.277344 286.457031 230.398438 286.867188 230.523438 C 288.136719 231.058594 288.765625 231.328125 289.5 232.5 C 289.105469 244.03125 274.382812 259.011719 267.71875 267.96875 C 267.480469 268.289062 267.242188 268.613281 266.996094 268.945312 C 264.203125 272.660156 264.203125 272.660156 262.5 274 C 255.820312 273.984375 247.875 265.503906 243.375 261 C 241.949219 259.566406 240.625 258.1875 239.5 256.5 C 239.542969 254.257812 239.761719 253.273438 241.25 251.5625 C 241.664062 251.210938 242.074219 250.859375 242.5 250.5 C 242.746094 250.253906 242.746094 250.253906 243 250 C 246.511719 250 248.058594 251.648438 250.5 254 C 251.332031 254.742188 252.164062 255.480469 253 256.21875 C 255.242188 258.238281 257.390625 260.339844 259.5 262.5 C 261.539062 260.667969 262.953125 258.480469 264.46875 256.21875 C 265.050781 255.359375 265.632812 254.5 266.21875 253.640625 C 266.511719 253.203125 266.808594 252.761719 267.113281 252.3125 C 270.683594 247.027344 274.273438 241.765625 278 236.59375 C 278.265625 236.226562 278.527344 235.859375 278.800781 235.480469 C 280.292969 233.417969 281.847656 231.4375 283.5 229.5 Z M 283.5 229.5 "/>
<path style=" stroke:none;fill-rule:nonzero;fill:rgb(97.254902%,96.078432%,99.607843%);fill-opacity:1;" d="M 227.5 48.5 C 228.488281 49.277344 228.941406 49.730469 229.207031 50.972656 C 229.1875 53.980469 228.507812 56.289062 227.3125 59.03125 C 227.136719 59.453125 226.960938 59.875 226.777344 60.3125 C 226.195312 61.710938 225.597656 63.105469 225 64.5 C 224.332031 66.0625 223.664062 67.625 223.003906 69.191406 C 222.578125 70.203125 222.144531 71.207031 221.707031 72.214844 C 219.578125 77.21875 217.328125 82.8125 219.1875 88.1875 C 219.78125 90.023438 219.78125 90.023438 221 90.5 C 223.46875 90.914062 225.480469 90.730469 227.625 89.40625 C 238.445312 81.359375 247.878906 67.847656 251.75 55 C 252.59375 52.332031 253.324219 50.53125 255.640625 48.90625 C 256.8125 48.351562 257.730469 48.269531 259 48.5 C 258.667969 50.398438 258.136719 52.132812 257.480469 53.941406 C 254.699219 61.726562 252.320312 69.484375 250.371094 77.527344 C 250 79 249.582031 80.453125 249.160156 81.914062 C 248.578125 84.019531 248.335938 85.894531 248.40625 88.09375 C 248.417969 88.648438 248.433594 89.199219 248.445312 89.773438 C 248.472656 90.378906 248.472656 90.378906 248.5 91 C 249.820312 91 251.140625 91 252.5 91 C 251.582031 93.386719 249.996094 93.96875 247.773438 95.007812 C 246.238281 95.601562 245.125 95.816406 243.5 95.5 C 242.503906 94.726562 242.054688 94.289062 241.820312 93.035156 C 241.894531 90.199219 242.28125 87.546875 242.90625 84.78125 C 243.042969 84.160156 243.042969 84.160156 243.179688 83.53125 C 243.820312 80.644531 244.550781 77.800781 245.5 75 C 245.179688 75.429688 244.855469 75.859375 244.523438 76.304688 C 238.574219 84.136719 231.167969 92.964844 221 95 C 219.113281 95.238281 217.308594 95.410156 215.578125 94.53125 C 213.480469 92.886719 212.65625 91.1875 212.3125 88.597656 C 212.15625 81.277344 215.496094 74.601562 218.34375 68 C 218.78125 66.980469 219.21875 65.960938 219.652344 64.941406 C 220.042969 64.027344 220.4375 63.113281 220.828125 62.203125 C 221.820312 59.691406 222.5625 57.222656 222.8125 54.53125 C 222.851562 54.144531 222.886719 53.757812 222.925781 53.359375 C 222.949219 53.078125 222.976562 52.792969 223 52.5 C 222.207031 52.640625 221.417969 52.789062 220.625 52.9375 C 219.964844 53.058594 219.964844 53.058594 219.289062 53.183594 C 218.007812 53.445312 218.007812 53.445312 216.960938 54.035156 C 216 54.5 216 54.5 214 54.5 C 214.855469 51.929688 217.15625 50.699219 219.445312 49.507812 C 222.003906 48.40625 224.738281 48 227.5 48.5 Z M 227.5 48.5 "/>
<path style=" stroke:none;fill-rule:nonzero;fill:rgb(97.647059%,96.470588%,99.607843%);fill-opacity:1;" d="M 145.609375 52.6875 C 148.246094 54.742188 149.464844 57.390625 150.5 60.5 C 151.214844 68.53125 148.566406 74.621094 143.484375 80.71875 C 136.773438 87.929688 125.875 93.179688 116.011719 93.558594 C 115.503906 93.554688 114.996094 93.550781 114.472656 93.546875 C 113.640625 93.546875 113.640625 93.546875 112.792969 93.542969 C 112.222656 93.539062 111.652344 93.535156 111.0625 93.53125 C 110.480469 93.527344 109.898438 93.527344 109.296875 93.523438 C 107.863281 93.519531 106.433594 93.511719 105 93.5 C 105.839844 91.617188 106.636719 90.929688 108.5 90 C 108.828125 90 109.160156 90 109.5 90 C 109.574219 89.410156 109.574219 89.410156 109.648438 88.808594 C 110.101562 86.476562 110.875 84.304688 111.65625 82.0625 C 114.921875 72.421875 116.808594 62.605469 118 52.5 C 112.832031 52.941406 112.832031 52.941406 108.5 55.5 C 107.828125 56.496094 107.214844 57.507812 106.609375 58.546875 C 105.765625 59.867188 104.828125 60.683594 103.5 61.5 C 102.839844 61.5 102.179688 61.5 101.5 61.5 C 101.9375 57.601562 105.445312 54.777344 108.3125 52.34375 C 118.003906 45.738281 135.867188 46.644531 145.609375 52.6875 Z M 123.5 52 C 123.449219 52.335938 123.398438 52.671875 123.347656 53.019531 C 122.359375 59.605469 121.3125 66.082031 119.5 72.5 C 119.40625 72.839844 119.3125 73.179688 119.21875 73.53125 C 118.003906 77.9375 116.609375 82.238281 114.941406 86.5 C 114.238281 88.199219 114.238281 88.199219 114 90 C 121.371094 89.769531 121.371094 89.769531 128.5 88 C 129.136719 87.792969 129.136719 87.792969 129.785156 87.578125 C 135.972656 85.375 140.539062 80.816406 143.492188 75.039062 C 145.1875 70.925781 145.300781 64.910156 143.96875 60.6875 C 141.617188 56.59375 138.460938 54.46875 134 53 C 130.480469 52.203125 127.09375 51.957031 123.5 52 Z M 123.5 52 "/>
<path style=" stroke:none;fill-rule:nonzero;fill:rgb(99.215686%,98.823529%,99.607843%);fill-opacity:1;" d="M 350.40625 210.375 C 350.914062 210.363281 351.421875 210.347656 351.945312 210.335938 C 353.847656 210.535156 354.917969 210.914062 356.5 212 C 357.523438 213.511719 358.203125 215.1875 358.917969 216.863281 C 359.425781 218.007812 359.425781 218.007812 360.5 219.5 C 362.300781 219.964844 362.300781 219.964844 364 220 C 365.9375 223.875 364.363281 231.519531 364.0625 235.6875 C 363.996094 236.652344 363.996094 236.652344 363.929688 237.636719 C 363.8125 239.320312 363.691406 241.007812 363.574219 242.691406 C 363.449219 244.417969 363.332031 246.148438 363.210938 247.878906 C 362.976562 251.253906 362.738281 254.625 362.5 258 C 362.171875 258 361.839844 258 361.5 258 C 361.171875 257.503906 360.839844 257.011719 360.5 256.5 C 359.261719 256.746094 359.261719 256.746094 358 257 C 357.503906 259.476562 357.503906 259.476562 357 262 C 356.011719 262.246094 356.011719 262.246094 355 262.5 C 351.046875 256.523438 351.761719 246.445312 351.089844 239.488281 C 350.929688 237.863281 350.769531 236.242188 350.609375 234.617188 C 350.5625 234.128906 350.515625 233.640625 350.46875 233.136719 C 349.917969 227.207031 349.917969 227.207031 348 221.625 C 347.828125 221.253906 347.65625 220.886719 347.476562 220.503906 C 347.320312 220.171875 347.160156 219.839844 347 219.5 C 345.777344 216.683594 345.902344 214.015625 346 211 C 347.570312 210.476562 348.753906 210.398438 350.40625 210.375 Z M 350.40625 210.375 "/>
<path style=" stroke:none;fill-rule:nonzero;fill:rgb(96.862745%,95.686275%,99.607843%);fill-opacity:1;" d="M 167 47 C 167.441406 52.792969 166.132812 58.351562 165 64 C 165.222656 63.738281 165.445312 63.476562 165.675781 63.203125 C 171.882812 55.984375 180.898438 50.035156 190 47 C 194.324219 46.792969 194.324219 46.792969 196 48 C 196.773438 49.546875 196.648438 50.796875 196.5 52.5 C 195.625 53.71875 195.625 53.71875 194.5 54.5 C 193.839844 54.5 193.179688 54.5 192.5 54.5 C 192.390625 53.648438 192.390625 53.648438 192.28125 52.78125 C 192.195312 51.097656 192.195312 51.097656 191.5 50.5 C 184.140625 49.914062 176.390625 56.804688 170.980469 61.117188 C 169.867188 62.117188 169.097656 62.976562 168.8125 64.476562 C 168.5625 73.199219 174.214844 83.304688 179.5 90 C 180.949219 91.34375 181.90625 91.714844 183.875 91.71875 C 186.425781 91.621094 188.527344 91.1875 190.5 89.5 C 191.214844 88.351562 191.800781 87.183594 192.382812 85.964844 C 193 85 193 85 194.65625 84.46875 C 195.101562 84.480469 195.542969 84.488281 196 84.5 C 195.933594 87.214844 194.828125 88.644531 193.046875 90.554688 C 189.582031 93.683594 185.34375 95.28125 180.691406 95.148438 C 177.074219 94.695312 174.628906 91.195312 172.5 88.5 C 171.339844 86.660156 170.347656 84.757812 169.375 82.8125 C 169.125 82.332031 168.871094 81.847656 168.613281 81.351562 C 166.589844 77.402344 164.792969 73.386719 164 69 C 162.945312 71.800781 161.953125 74.601562 161.09375 77.46875 C 160.199219 80.417969 159.226562 83.335938 158.21875 86.25 C 158.070312 86.679688 157.925781 87.109375 157.773438 87.554688 C 155.894531 92.949219 155.894531 92.949219 153.53125 94.40625 C 152 95 152 95 150 95 C 150.980469 91.566406 152.117188 88.203125 153.308594 84.839844 C 157.125 74.03125 159.203125 63.285156 161 52 C 160.628906 52.164062 160.257812 52.328125 159.875 52.5 C 158.5 53 158.5 53 156.5 53 C 157.117188 51.015625 158.382812 50.347656 160.15625 49.402344 C 160.667969 49.140625 160.667969 49.140625 161.1875 48.875 C 161.523438 48.691406 161.859375 48.511719 162.207031 48.324219 C 163.964844 47.40625 164.980469 47 167 47 Z M 167 47 "/>
<path style=" stroke:none;fill-rule:nonzero;fill:rgb(97.254902%,96.470588%,99.607843%);fill-opacity:1;" d="M 291 47 C 292.617188 47.8125 293.679688 48.863281 294.5 50.5 C 294.800781 53.171875 295.003906 55.292969 293.40625 57.53125 C 291.5625 58.800781 290.253906 59.5 288 59.5 C 287.992188 59.132812 287.984375 58.765625 287.976562 58.382812 C 287.832031 55.191406 287.832031 55.191406 286.375 52.40625 C 285.089844 51.464844 285.089844 51.464844 283.8125 51.15625 C 280.988281 51.894531 279.507812 53.648438 278.070312 56.0625 C 275.253906 61.550781 273.40625 67.171875 271.84375 73.125 C 270.519531 78.039062 268.902344 82.507812 266.5 87 C 267.253906 86.980469 267.253906 86.980469 268.023438 86.960938 C 269.972656 87 271.6875 87.257812 273.59375 87.65625 C 273.917969 87.722656 274.246094 87.789062 274.578125 87.859375 C 276.601562 88.28125 278.597656 88.78125 280.59375 89.3125 C 283.542969 90.078125 286.460938 90.34375 289.5 90.5 C 289.582031 89.984375 289.664062 89.46875 289.75 88.9375 C 290.359375 86.78125 291.664062 85.832031 293.414062 84.53125 C 294.695312 83.90625 295.59375 83.898438 297 84 C 295.929688 87.832031 293.507812 90.726562 290.144531 92.859375 C 284.199219 95.859375 279.546875 95.058594 273.21875 93.5 C 267.671875 92.113281 267.671875 92.113281 262 92 C 260.882812 92.726562 259.992188 93.59375 259 94.5 C 257.3125 94.90625 257.3125 94.90625 256 95 C 256.519531 93.28125 257.25 92.152344 258.4375 90.84375 C 261.863281 86.984375 263.058594 82.082031 264.4375 77.21875 C 264.792969 75.980469 265.144531 74.738281 265.5 73.5 C 265.589844 73.179688 265.675781 72.859375 265.769531 72.53125 C 267.664062 65.753906 270.257812 58.832031 275 53.5 C 275.257812 53.195312 275.519531 52.890625 275.789062 52.574219 C 279.792969 48.1875 285.128906 46.289062 291 47 Z M 291 47 "/>
<path style=" stroke:none;fill-rule:nonzero;fill:rgb(98.431373%,97.647059%,99.607843%);fill-opacity:1;" d="M 346.5 46.5 C 346.050781 48.46875 345.269531 49.289062 343.625 50.34375 C 339.984375 52.542969 336.714844 52.628906 332.5625 52.5625 C 332.027344 52.558594 331.492188 52.554688 330.941406 52.546875 C 329.628906 52.535156 328.3125 52.519531 327 52.5 C 326.878906 52.996094 326.757812 53.492188 326.632812 54.003906 C 325.664062 57.9375 324.636719 61.835938 323.492188 65.722656 C 323.058594 67.285156 322.683594 68.851562 322.328125 70.429688 C 320.820312 76.957031 318.332031 84.167969 313.5 89 C 316.46875 89.164062 319.441406 89.328125 322.5 89.5 C 321.378906 91.742188 320.269531 92.609375 318 93.5 C 316.609375 93.664062 315.429688 93.738281 314.046875 93.695312 C 313.507812 93.691406 313.507812 93.691406 312.953125 93.6875 C 311.8125 93.675781 310.671875 93.652344 309.53125 93.625 C 308.753906 93.613281 307.972656 93.605469 307.195312 93.597656 C 305.296875 93.574219 303.398438 93.542969 301.5 93.5 C 302.4375 91.304688 303.886719 90.476562 306 89.5 C 306.527344 89.34375 307.050781 89.191406 307.59375 89.03125 C 309.398438 88.347656 309.902344 87.582031 311 86 C 311.542969 84.777344 312.023438 83.597656 312.46875 82.34375 C 312.597656 81.992188 312.722656 81.640625 312.855469 81.277344 C 313.246094 80.1875 313.625 79.09375 314 78 C 314.113281 77.675781 314.222656 77.351562 314.339844 77.015625 C 315.722656 72.933594 316.792969 68.824219 317.75 64.625 C 318.730469 60.320312 320.019531 56.457031 322 52.5 C 319.835938 52.496094 317.675781 52.515625 315.515625 52.546875 C 314.78125 52.558594 314.046875 52.5625 313.3125 52.558594 C 312.25 52.558594 311.195312 52.578125 310.132812 52.597656 C 309.179688 52.605469 309.179688 52.605469 308.207031 52.613281 C 305.84375 53.148438 305.347656 54.027344 304 56 C 303.414062 57.15625 303.414062 57.15625 303.03125 58.28125 C 302.066406 60.582031 301.109375 61.652344 299 63 C 297.3125 63.40625 297.3125 63.40625 296 63.5 C 296.574219 58.609375 299.667969 54.90625 303.359375 51.828125 C 306.371094 49.640625 309.292969 48.441406 313.023438 48.421875 C 313.644531 48.414062 314.265625 48.410156 314.910156 48.40625 C 315.242188 48.402344 315.574219 48.402344 315.914062 48.398438 C 316.957031 48.394531 318 48.382812 319.042969 48.375 C 322.007812 48.34375 324.972656 48.316406 327.9375 48.300781 C 329.75 48.289062 331.5625 48.269531 333.378906 48.25 C 334.066406 48.242188 334.757812 48.238281 335.449219 48.234375 C 336.414062 48.234375 337.382812 48.222656 338.347656 48.207031 C 339.171875 48.203125 339.171875 48.203125 340.011719 48.195312 C 342.539062 47.863281 343.839844 46.273438 346.5 46.5 Z M 346.5 46.5 "/>
<path style=" stroke:none;fill-rule:nonzero;fill:rgb(97.254902%,96.078432%,99.607843%);fill-opacity:1;" d="M 94.75 46.84375 C 95.382812 46.835938 96.019531 46.828125 96.671875 46.820312 C 99.097656 47.058594 100.773438 47.773438 102.5 49.5 C 102.667969 51.558594 102.710938 52.953125 101.96875 54.875 C 100.632812 56.429688 99.351562 57.109375 97.5 58 C 97.003906 58 96.511719 58 96 58 C 96.058594 57.65625 96.117188 57.3125 96.179688 56.960938 C 96.242188 56.507812 96.308594 56.058594 96.375 55.59375 C 96.445312 55.148438 96.515625 54.699219 96.585938 54.242188 C 96.621094 52.957031 96.621094 52.957031 95.71875 52.101562 C 92.976562 50.75 89.269531 51.117188 86.335938 51.75 C 84.3125 52.523438 83.171875 53.722656 82 55.5 C 81.792969 55.808594 81.585938 56.117188 81.375 56.4375 C 80.578125 58.691406 80.742188 60.449219 81.75 62.59375 C 84.355469 65.523438 87.222656 66.207031 91.046875 66.460938 C 91.519531 66.480469 91.519531 66.480469 92 66.5 C 92 67.160156 92 67.820312 92 68.5 C 89.875 70.308594 88.003906 70.816406 85.28125 71.21875 C 82.253906 71.722656 80.332031 72.492188 78 74.5 C 77.671875 74.5 77.339844 74.5 77 74.5 C 76.863281 74.78125 76.722656 75.0625 76.582031 75.351562 C 76.191406 76.125 75.78125 76.890625 75.355469 77.648438 C 73.835938 80.4375 73.078125 82.324219 73.5 85.5 C 74.160156 87.335938 74.652344 88.242188 76.21875 89.40625 C 79.5625 90.957031 83.585938 91.066406 87.15625 90.226562 C 89.882812 89.058594 91.605469 86.871094 93.460938 84.621094 C 94.46875 83.535156 95.113281 82.984375 96.5 82.5 C 97.160156 82.5 97.820312 82.5 98.5 82.5 C 96.664062 87.917969 91.054688 91.230469 86.171875 93.660156 C 81.851562 95.476562 76.882812 95.957031 72.46875 94.15625 C 70.363281 93.054688 68.582031 91.660156 67.5 89.5 C 66.957031 84.511719 67.9375 81.585938 71.007812 77.734375 C 73.15625 75.242188 75.425781 73.132812 78.078125 71.1875 C 79.054688 70.496094 79.054688 70.496094 80 69.5 C 79.722656 69.3125 79.445312 69.125 79.160156 68.929688 C 75.425781 66.292969 75.425781 66.292969 75 64 C 74.574219 60.945312 75.03125 58.722656 76.667969 56.097656 C 80.871094 50.550781 87.792969 46.863281 94.75 46.84375 Z M 94.75 46.84375 "/>
<path style=" stroke:none;fill-rule:nonzero;fill:rgb(38.039216%,10.588235%,92.156863%);fill-opacity:1;" d="M 432 54.5 C 432.164062 54.5 432.328125 54.5 432.5 54.5 C 432.511719 54.886719 432.523438 55.273438 432.539062 55.671875 C 432.792969 63.453125 433.085938 71.226562 433.5 79 C 428.550781 79.164062 423.601562 79.328125 418.5 79.5 C 419.273438 77.5625 420.050781 75.96875 421.097656 74.195312 C 421.414062 73.65625 421.726562 73.117188 422.050781 72.5625 C 422.386719 71.996094 422.71875 71.429688 423.0625 70.84375 C 425.628906 66.449219 428.089844 62.03125 430.289062 57.4375 C 431 56 431 56 432 54.5 Z M 432 54.5 "/>
</g>
</svg>
